<svg width="100" height="100" viewBox="0 0 512 512" xmlns="http://www.w3.org/2000/svg">
  <!-- Gear outer shape -->
  <path d="M502.6 278.6c12.5-12.5 12.5-32.8 0-45.3l-25.4-25.4c-12.5-12.5-32.8-12.5-45.3 0l-15.1 15.1-60.6-60.6 15.1-15.1c12.5-12.5 12.5-32.8 0-45.3l-25.4-25.4c-12.5-12.5-32.8-12.5-45.3 0l-15.1 15.1-60.6-60.6 15.1-15.1c12.5-12.5 12.5-32.8 0-45.3L214.6 9.4c-12.5-12.5-32.8-12.5-45.3 0l-15.1 15.1L93.6 24.5 108.7 9.4c12.5-12.5 12.5-32.8 0-45.3L83.3-61.3c-12.5-12.5-32.8-12.5-45.3 0L22.9-46.2-37.7-106.8-22.6-121.9c-12.5-12.5-32.8-12.5-45.3 0l-25.4 25.4c-12.5 12.5-12.5 32.8 0 45.3l15.1 15.1-60.6 60.6-15.1-15.1c-12.5-12.5-32.8-12.5-45.3 0l-25.4 25.4c-12.5 12.5-12.5 32.8 0 45.3l15.1 15.1-60.6 60.6-15.1-15.1c-12.5-12.5-32.8-12.5-45.3 0L-361.3 214.6c-12.5 12.5-12.5 32.8 0 45.3l15.1 15.1-60.6 60.6-15.1-15.1c-12.5-12.5-32.8-12.5-45.3 0l-25.4 25.4c-12.5 12.5-12.5 32.8 0 45.3l15.1 15.1-60.6 60.6-15.1-15.1c-12.5-12.5-32.8-12.5-45.3 0l-25.4 25.4c-12.5 12.5-12.5 32.8 0 45.3l25.4 25.4c12.5 12.5 32.8 12.5 45.3 0l15.1-15.1 60.6 60.6-15.1 15.1c-12.5 12.5-12.5 32.8 0 45.3l25.4 25.4c12.5 12.5 32.8 12.5 45.3 0l15.1-15.1 60.6 60.6-15.1 15.1c-12.5 12.5-12.5 32.8 0 45.3l25.4 25.4c12.5 12.5 32.8 12.5 45.3 0l15.1-15.1 60.6 60.6-15.1 15.1c-12.5 12.5-12.5 32.8 0 45.3l25.4 25.4c12.5 12.5 32.8 12.5 45.3 0l15.1-15.1 60.6 60.6-15.1 15.1c-12.5 12.5-12.5 32.8 0 45.3l25.4 25.4c12.5 12.5 32.8 12.5 45.3 0l25.4-25.4z" 
        fill="#2d5a47"/>
  
  <!-- Simplified gear with tree -->
  <g transform="translate(256, 256)">
    <!-- Gear teeth -->
    <circle cx="0" cy="0" r="200" fill="#2d5a47"/>
    <circle cx="0" cy="0" r="160" fill="white"/>
    
    <!-- Tree trunk -->
    <rect x="-15" y="30" width="30" height="80" fill="#5d4037" rx="4"/>
    
    <!-- Tree crown - simplified -->
    <ellipse cx="0" cy="-20" rx="80" ry="90" fill="#2d5a47"/>
    <ellipse cx="-30" cy="10" rx="50" ry="60" fill="#388e3c"/>
    <ellipse cx="30" cy="10" rx="50" ry="60" fill="#388e3c"/>
    
    <!-- Tree details -->
    <circle cx="-25" cy="-10" r="8" fill="#43a047"/>
    <circle cx="20" cy="0" r="8" fill="#43a047"/>
    <circle cx="0" cy="-40" r="8" fill="#43a047"/>
    
    <!-- Roots -->
    <path d="M -15,110 Q -40,120 -50,130" stroke="#5d4037" stroke-width="8" fill="none" stroke-linecap="round"/>
    <path d="M 15,110 Q 40,120 50,130" stroke="#5d4037" stroke-width="8" fill="none" stroke-linecap="round"/>
  </g>
</svg>
